<svg width="18" height="18" viewBox="0 0 18 18" fill="none" xmlns="http://www.w3.org/2000/svg">
<path d="M4.5 3.75V14.25H6.75V9.75H11.25V14.25H13.5V3.75H11.25V8.25H6.75V3.75H4.5ZM2.25 11.25C2.25 11.4489 2.32902 11.6397 2.46967 11.7803C2.61032 11.921 2.80109 12 3 12H3.75V6H3C2.80109 6 2.61032 6.07902 2.46967 6.21967C2.32902 6.36032 2.25 6.55109 2.25 6.75V8.25H1.5V9.75H2.25V11.25ZM15.75 6.75C15.75 6.55109 15.671 6.36032 15.5303 6.21967C15.3897 6.07902 15.1989 6 15 6H14.25V12H15C15.1989 12 15.3897 11.921 15.5303 11.7803C15.671 11.6397 15.75 11.4489 15.75 11.25V9.75H16.5V8.25H15.75V6.75Z" fill="white"/>
</svg>
