<svg width="18" height="18" viewBox="0 0 18 18" fill="none" xmlns="http://www.w3.org/2000/svg">
<path d="M15.75 7.50004C15.7363 7.04083 15.6049 6.59284 15.3686 6.1989C15.1322 5.80496 14.7987 5.47825 14.4 5.25004C14.3044 4.59674 13.9765 3.9998 13.4765 3.56864C12.9764 3.13747 12.3378 2.90099 11.6775 2.90254C11.4243 2.9021 11.1722 2.93488 10.9275 3.00004C10.4113 2.50718 9.72498 2.23218 9.01125 2.23218C8.29752 2.23218 7.61124 2.50718 7.095 3.00004C6.85034 2.93488 6.59819 2.9021 6.345 2.90254C5.68217 2.89736 5.03986 3.13221 4.53669 3.5637C4.03351 3.99519 3.70347 4.59417 3.6075 5.25004C3.20739 5.47732 2.8724 5.80362 2.63469 6.19762C2.39697 6.59162 2.2645 7.04011 2.25 7.50004C2.05109 7.50004 1.86032 7.57906 1.71967 7.71971C1.57902 7.86036 1.5 8.05113 1.5 8.25004C1.50003 9.56653 1.8466 10.8598 2.50486 11.9999C3.16312 13.14 4.10988 14.0868 5.25 14.745V15.75C5.25 15.9489 5.32902 16.1397 5.46967 16.2804C5.61032 16.421 5.80109 16.5 6 16.5H12C12.1989 16.5 12.3897 16.421 12.5303 16.2804C12.671 16.1397 12.75 15.9489 12.75 15.75V14.745C13.8901 14.0868 14.8369 13.14 15.4951 11.9999C16.1534 10.8598 16.5 9.56653 16.5 8.25004C16.5 8.05113 16.421 7.86036 16.2803 7.71971C16.1397 7.57906 15.9489 7.50004 15.75 7.50004ZM3.75 7.50004C3.76905 7.26308 3.85849 7.03723 4.00682 6.85148C4.15516 6.66572 4.35563 6.52854 4.5825 6.45754L5.205 6.26254L5.085 5.62504C5.08696 5.46351 5.12072 5.30395 5.18434 5.15546C5.24797 5.00698 5.34023 4.87249 5.45584 4.75966C5.57145 4.64684 5.70815 4.55789 5.85814 4.4979C6.00813 4.43791 6.16847 4.40806 6.33 4.41004C6.5466 4.4088 6.76024 4.46028 6.9525 4.56004L7.56 4.89754L7.935 4.32004C8.05228 4.14524 8.21078 4.002 8.39651 3.90295C8.58225 3.8039 8.78951 3.75209 9 3.75209C9.21049 3.75209 9.41775 3.8039 9.60349 3.90295C9.78922 4.002 9.94772 4.14524 10.065 4.32004L10.44 4.89754L11.0475 4.56004C11.2398 4.46028 11.4534 4.4088 11.67 4.41004C11.9944 4.40596 12.3074 4.52943 12.5417 4.75387C12.7759 4.97831 12.9127 5.28576 12.9225 5.61004L12.8025 6.24754L13.4175 6.45754C13.6444 6.52854 13.8448 6.66572 13.9932 6.85148C14.1415 7.03723 14.2309 7.26308 14.25 7.50004H3.75Z" fill="white"/>
</svg>
